<mxfile host="app.diagrams.net" modified="2023-09-24T08:10:35.236Z" agent="Mozilla/5.0 (Windows NT 10.0; Win64; x64) AppleWebKit/537.36 (KHTML, like Gecko) Chrome/117.0.0.0 Safari/537.36" etag="OnUIT4_u2esyONaHfmHq" version="21.7.4" type="github">
  <diagram name="Page-1" id="2YBvvXClWsGukQMizWep">
    <mxGraphModel dx="3850" dy="1649" grid="1" gridSize="10" guides="1" tooltips="1" connect="1" arrows="1" fold="1" page="1" pageScale="1" pageWidth="850" pageHeight="1100" math="0" shadow="0">
      <root>
        <mxCell id="0" />
        <mxCell id="1" parent="0" />
        <mxCell id="4EB186rXIbqgTivsJCov-3" value="" style="edgeStyle=orthogonalEdgeStyle;rounded=0;orthogonalLoop=1;jettySize=auto;html=1;" edge="1" parent="1" source="4EB186rXIbqgTivsJCov-1" target="4EB186rXIbqgTivsJCov-2">
          <mxGeometry relative="1" as="geometry" />
        </mxCell>
        <object label="" id="4EB186rXIbqgTivsJCov-1">
          <mxCell style="ellipse;whiteSpace=wrap;html=1;" vertex="1" parent="1">
            <mxGeometry x="-650" y="650" width="120" height="80" as="geometry" />
          </mxCell>
        </object>
        <mxCell id="4EB186rXIbqgTivsJCov-59" value="" style="edgeStyle=orthogonalEdgeStyle;rounded=0;orthogonalLoop=1;jettySize=auto;html=1;" edge="1" parent="1" source="4EB186rXIbqgTivsJCov-2" target="4EB186rXIbqgTivsJCov-58">
          <mxGeometry relative="1" as="geometry" />
        </mxCell>
        <mxCell id="4EB186rXIbqgTivsJCov-2" value="" style="whiteSpace=wrap;html=1;" vertex="1" parent="1">
          <mxGeometry x="-460" y="570" width="260" height="200" as="geometry" />
        </mxCell>
        <mxCell id="4EB186rXIbqgTivsJCov-5" value="USER" style="text;html=1;strokeColor=none;fillColor=none;align=center;verticalAlign=middle;whiteSpace=wrap;rounded=0;" vertex="1" parent="1">
          <mxGeometry x="-620" y="675" width="60" height="30" as="geometry" />
        </mxCell>
        <mxCell id="4EB186rXIbqgTivsJCov-11" value="" style="whiteSpace=wrap;html=1;" vertex="1" parent="1">
          <mxGeometry x="-25" y="400" width="900" height="740" as="geometry" />
        </mxCell>
        <mxCell id="4EB186rXIbqgTivsJCov-65" style="edgeStyle=orthogonalEdgeStyle;rounded=0;orthogonalLoop=1;jettySize=auto;html=1;entryX=0.5;entryY=1;entryDx=0;entryDy=0;" edge="1" parent="1" source="4EB186rXIbqgTivsJCov-14" target="4EB186rXIbqgTivsJCov-16">
          <mxGeometry relative="1" as="geometry" />
        </mxCell>
        <mxCell id="4EB186rXIbqgTivsJCov-66" style="edgeStyle=orthogonalEdgeStyle;rounded=0;orthogonalLoop=1;jettySize=auto;html=1;entryX=0;entryY=0.5;entryDx=0;entryDy=0;" edge="1" parent="1" source="4EB186rXIbqgTivsJCov-14" target="4EB186rXIbqgTivsJCov-19">
          <mxGeometry relative="1" as="geometry" />
        </mxCell>
        <mxCell id="4EB186rXIbqgTivsJCov-14" value="" style="rounded=1;whiteSpace=wrap;html=1;arcSize=39;" vertex="1" parent="1">
          <mxGeometry x="-10" y="730" width="120" height="60" as="geometry" />
        </mxCell>
        <mxCell id="4EB186rXIbqgTivsJCov-15" value="Fetch data" style="text;html=1;strokeColor=none;fillColor=none;align=center;verticalAlign=middle;whiteSpace=wrap;rounded=0;fontSize=15;" vertex="1" parent="1">
          <mxGeometry x="20" y="745" width="60" height="30" as="geometry" />
        </mxCell>
        <mxCell id="4EB186rXIbqgTivsJCov-16" value="" style="rounded=0;whiteSpace=wrap;html=1;" vertex="1" parent="1">
          <mxGeometry x="20" y="440" width="225" height="60" as="geometry" />
        </mxCell>
        <mxCell id="4EB186rXIbqgTivsJCov-17" value="Text Summarization" style="text;html=1;strokeColor=none;fillColor=none;align=center;verticalAlign=middle;whiteSpace=wrap;rounded=0;fontSize=16;fontStyle=1" vertex="1" parent="1">
          <mxGeometry x="50" y="450" width="160" height="30" as="geometry" />
        </mxCell>
        <mxCell id="4EB186rXIbqgTivsJCov-28" value="" style="edgeStyle=orthogonalEdgeStyle;rounded=0;orthogonalLoop=1;jettySize=auto;html=1;" edge="1" parent="1" source="4EB186rXIbqgTivsJCov-19" target="4EB186rXIbqgTivsJCov-27">
          <mxGeometry relative="1" as="geometry" />
        </mxCell>
        <mxCell id="4EB186rXIbqgTivsJCov-19" value="" style="rounded=0;whiteSpace=wrap;html=1;" vertex="1" parent="1">
          <mxGeometry x="320" y="560" width="225" height="60" as="geometry" />
        </mxCell>
        <mxCell id="4EB186rXIbqgTivsJCov-20" value="Chatbot via Llama" style="text;html=1;strokeColor=none;fillColor=none;align=center;verticalAlign=middle;whiteSpace=wrap;rounded=0;fontSize=15;fontStyle=1" vertex="1" parent="1">
          <mxGeometry x="355" y="575" width="140" height="30" as="geometry" />
        </mxCell>
        <mxCell id="4EB186rXIbqgTivsJCov-31" value="" style="edgeStyle=orthogonalEdgeStyle;rounded=0;orthogonalLoop=1;jettySize=auto;html=1;" edge="1" parent="1" source="4EB186rXIbqgTivsJCov-22" target="4EB186rXIbqgTivsJCov-30">
          <mxGeometry relative="1" as="geometry" />
        </mxCell>
        <mxCell id="4EB186rXIbqgTivsJCov-22" value="" style="rounded=0;whiteSpace=wrap;html=1;" vertex="1" parent="1">
          <mxGeometry x="600" y="560" width="225" height="60" as="geometry" />
        </mxCell>
        <mxCell id="4EB186rXIbqgTivsJCov-24" value="&lt;b&gt;&lt;font style=&quot;font-size: 15px;&quot;&gt;GPT2LMHeadModel&lt;/font&gt;&lt;/b&gt;" style="text;html=1;strokeColor=none;fillColor=none;align=center;verticalAlign=middle;whiteSpace=wrap;rounded=0;" vertex="1" parent="1">
          <mxGeometry x="632.5" y="575" width="160" height="30" as="geometry" />
        </mxCell>
        <mxCell id="4EB186rXIbqgTivsJCov-35" value="" style="edgeStyle=orthogonalEdgeStyle;rounded=0;orthogonalLoop=1;jettySize=auto;html=1;" edge="1" parent="1" source="4EB186rXIbqgTivsJCov-27" target="4EB186rXIbqgTivsJCov-30">
          <mxGeometry relative="1" as="geometry" />
        </mxCell>
        <mxCell id="4EB186rXIbqgTivsJCov-51" style="edgeStyle=orthogonalEdgeStyle;rounded=0;orthogonalLoop=1;jettySize=auto;html=1;entryX=0.5;entryY=0;entryDx=0;entryDy=0;" edge="1" parent="1" source="4EB186rXIbqgTivsJCov-27" target="4EB186rXIbqgTivsJCov-37">
          <mxGeometry relative="1" as="geometry" />
        </mxCell>
        <mxCell id="4EB186rXIbqgTivsJCov-27" value="" style="shape=parallelogram;perimeter=parallelogramPerimeter;whiteSpace=wrap;html=1;fixedSize=1;rounded=0;" vertex="1" parent="1">
          <mxGeometry x="305" y="715" width="220" height="80" as="geometry" />
        </mxCell>
        <mxCell id="4EB186rXIbqgTivsJCov-29" value="Content Generation" style="text;html=1;strokeColor=none;fillColor=none;align=center;verticalAlign=middle;whiteSpace=wrap;rounded=0;fontSize=15;fontStyle=1" vertex="1" parent="1">
          <mxGeometry x="320" y="740" width="180" height="30" as="geometry" />
        </mxCell>
        <mxCell id="4EB186rXIbqgTivsJCov-45" value="" style="edgeStyle=orthogonalEdgeStyle;rounded=0;orthogonalLoop=1;jettySize=auto;html=1;" edge="1" parent="1" source="4EB186rXIbqgTivsJCov-30" target="4EB186rXIbqgTivsJCov-42">
          <mxGeometry relative="1" as="geometry" />
        </mxCell>
        <mxCell id="4EB186rXIbqgTivsJCov-30" value="" style="shape=parallelogram;perimeter=parallelogramPerimeter;whiteSpace=wrap;html=1;fixedSize=1;rounded=0;" vertex="1" parent="1">
          <mxGeometry x="613.75" y="720" width="197.5" height="80" as="geometry" />
        </mxCell>
        <mxCell id="4EB186rXIbqgTivsJCov-36" value="" style="shape=parallelogram;perimeter=parallelogramPerimeter;whiteSpace=wrap;html=1;fixedSize=1;rounded=0;" vertex="1" parent="1">
          <mxGeometry x="595" y="880" width="197.5" height="80" as="geometry" />
        </mxCell>
        <mxCell id="4EB186rXIbqgTivsJCov-39" value="" style="edgeStyle=orthogonalEdgeStyle;rounded=0;orthogonalLoop=1;jettySize=auto;html=1;" edge="1" parent="1" source="4EB186rXIbqgTivsJCov-37" target="4EB186rXIbqgTivsJCov-40">
          <mxGeometry relative="1" as="geometry">
            <mxPoint x="428.125" y="1130" as="targetPoint" />
          </mxGeometry>
        </mxCell>
        <mxCell id="4EB186rXIbqgTivsJCov-37" value="" style="shape=parallelogram;perimeter=parallelogramPerimeter;whiteSpace=wrap;html=1;fixedSize=1;rounded=0;" vertex="1" parent="1">
          <mxGeometry x="297.5" y="970" width="197.5" height="80" as="geometry" />
        </mxCell>
        <mxCell id="4EB186rXIbqgTivsJCov-57" style="edgeStyle=orthogonalEdgeStyle;rounded=0;orthogonalLoop=1;jettySize=auto;html=1;entryX=0.5;entryY=1;entryDx=0;entryDy=0;" edge="1" parent="1" source="4EB186rXIbqgTivsJCov-40" target="4EB186rXIbqgTivsJCov-2">
          <mxGeometry relative="1" as="geometry" />
        </mxCell>
        <object label="" id="4EB186rXIbqgTivsJCov-40">
          <mxCell style="ellipse;whiteSpace=wrap;html=1;" vertex="1" parent="1">
            <mxGeometry x="-405" y="925" width="150" height="100" as="geometry" />
          </mxCell>
        </object>
        <mxCell id="4EB186rXIbqgTivsJCov-48" style="edgeStyle=orthogonalEdgeStyle;rounded=0;orthogonalLoop=1;jettySize=auto;html=1;exitX=0;exitY=0.5;exitDx=0;exitDy=0;entryX=0.5;entryY=0;entryDx=0;entryDy=0;" edge="1" parent="1" source="4EB186rXIbqgTivsJCov-42" target="4EB186rXIbqgTivsJCov-37">
          <mxGeometry relative="1" as="geometry" />
        </mxCell>
        <mxCell id="4EB186rXIbqgTivsJCov-42" value="Additional &lt;br&gt;Information" style="text;html=1;strokeColor=none;fillColor=none;align=center;verticalAlign=middle;whiteSpace=wrap;rounded=0;fontSize=15;fontStyle=1" vertex="1" parent="1">
          <mxGeometry x="600" y="892.5" width="180" height="55" as="geometry" />
        </mxCell>
        <mxCell id="4EB186rXIbqgTivsJCov-43" value="Text" style="text;html=1;strokeColor=none;fillColor=none;align=center;verticalAlign=middle;whiteSpace=wrap;rounded=0;fontSize=15;fontStyle=1" vertex="1" parent="1">
          <mxGeometry x="622.5" y="745" width="180" height="30" as="geometry" />
        </mxCell>
        <mxCell id="4EB186rXIbqgTivsJCov-44" value="Combined Response" style="text;html=1;strokeColor=none;fillColor=none;align=center;verticalAlign=middle;whiteSpace=wrap;rounded=0;fontSize=15;fontStyle=1" vertex="1" parent="1">
          <mxGeometry x="305" y="995" width="180" height="30" as="geometry" />
        </mxCell>
        <mxCell id="4EB186rXIbqgTivsJCov-52" value="Results" style="text;html=1;strokeColor=none;fillColor=none;align=center;verticalAlign=middle;whiteSpace=wrap;rounded=0;fontSize=15;fontStyle=1" vertex="1" parent="1">
          <mxGeometry x="-420" y="960" width="180" height="30" as="geometry" />
        </mxCell>
        <mxCell id="4EB186rXIbqgTivsJCov-58" value="" style="ellipse;whiteSpace=wrap;html=1;" vertex="1" parent="1">
          <mxGeometry x="-370" y="340" width="140" height="90" as="geometry" />
        </mxCell>
        <mxCell id="4EB186rXIbqgTivsJCov-60" value="&lt;font style=&quot;font-size: 15px;&quot;&gt;&lt;b&gt;Output&lt;/b&gt;&lt;/font&gt;" style="text;html=1;strokeColor=none;fillColor=none;align=center;verticalAlign=middle;whiteSpace=wrap;rounded=0;" vertex="1" parent="1">
          <mxGeometry x="-330" y="370" width="60" height="30" as="geometry" />
        </mxCell>
        <mxCell id="4EB186rXIbqgTivsJCov-61" value="" style="rounded=0;whiteSpace=wrap;html=1;" vertex="1" parent="1">
          <mxGeometry x="-350" y="605" width="120" height="60" as="geometry" />
        </mxCell>
        <mxCell id="4EB186rXIbqgTivsJCov-4" value="&lt;font style=&quot;font-size: 16px;&quot;&gt;React&lt;/font&gt;" style="text;html=1;strokeColor=none;fillColor=none;align=center;verticalAlign=middle;whiteSpace=wrap;rounded=0;" vertex="1" parent="1">
          <mxGeometry x="-330" y="615" width="80" height="40" as="geometry" />
        </mxCell>
        <mxCell id="4EB186rXIbqgTivsJCov-62" value="" style="rounded=0;whiteSpace=wrap;html=1;" vertex="1" parent="1">
          <mxGeometry x="-345" y="690" width="120" height="60" as="geometry" />
        </mxCell>
        <mxCell id="4EB186rXIbqgTivsJCov-8" value="&lt;span style=&quot;font-size: 16px;&quot;&gt;Tailwind CSS&lt;/span&gt;" style="text;html=1;strokeColor=none;fillColor=none;align=center;verticalAlign=middle;whiteSpace=wrap;rounded=0;" vertex="1" parent="1">
          <mxGeometry x="-340" y="700" width="110" height="40" as="geometry" />
        </mxCell>
        <mxCell id="4EB186rXIbqgTivsJCov-63" value="&lt;font style=&quot;font-size: 17px;&quot;&gt;&lt;b&gt;Front-End&lt;/b&gt;&lt;/font&gt;" style="text;html=1;strokeColor=none;fillColor=none;align=center;verticalAlign=middle;whiteSpace=wrap;rounded=0;" vertex="1" parent="1">
          <mxGeometry x="-460" y="575" width="100" height="30" as="geometry" />
        </mxCell>
        <mxCell id="4EB186rXIbqgTivsJCov-68" value="" style="endArrow=classic;startArrow=classic;html=1;rounded=0;exitX=1;exitY=0.5;exitDx=0;exitDy=0;entryX=0;entryY=0.5;entryDx=0;entryDy=0;" edge="1" parent="1" source="4EB186rXIbqgTivsJCov-2" target="4EB186rXIbqgTivsJCov-11">
          <mxGeometry width="50" height="50" relative="1" as="geometry">
            <mxPoint x="-140" y="730" as="sourcePoint" />
            <mxPoint x="-90" y="680" as="targetPoint" />
            <Array as="points">
              <mxPoint x="-100" y="670" />
            </Array>
          </mxGeometry>
        </mxCell>
        <mxCell id="4EB186rXIbqgTivsJCov-69" value="" style="endArrow=classic;html=1;rounded=0;exitX=1;exitY=0.5;exitDx=0;exitDy=0;entryX=0.469;entryY=0.003;entryDx=0;entryDy=0;entryPerimeter=0;" edge="1" parent="1" source="4EB186rXIbqgTivsJCov-16" target="4EB186rXIbqgTivsJCov-19">
          <mxGeometry width="50" height="50" relative="1" as="geometry">
            <mxPoint x="330" y="480" as="sourcePoint" />
            <mxPoint x="380" y="430" as="targetPoint" />
            <Array as="points">
              <mxPoint x="426" y="470" />
            </Array>
          </mxGeometry>
        </mxCell>
        <mxCell id="4EB186rXIbqgTivsJCov-70" value="" style="endArrow=classic;html=1;rounded=0;exitX=1;exitY=0.5;exitDx=0;exitDy=0;entryX=0.5;entryY=0;entryDx=0;entryDy=0;" edge="1" parent="1" source="4EB186rXIbqgTivsJCov-16" target="4EB186rXIbqgTivsJCov-22">
          <mxGeometry width="50" height="50" relative="1" as="geometry">
            <mxPoint x="520" y="500" as="sourcePoint" />
            <mxPoint x="570" y="450" as="targetPoint" />
            <Array as="points">
              <mxPoint x="710" y="470" />
            </Array>
          </mxGeometry>
        </mxCell>
        <mxCell id="4EB186rXIbqgTivsJCov-71" value="" style="endArrow=classic;html=1;rounded=0;exitX=0;exitY=0.5;exitDx=0;exitDy=0;" edge="1" parent="1" source="4EB186rXIbqgTivsJCov-42">
          <mxGeometry width="50" height="50" relative="1" as="geometry">
            <mxPoint x="540" y="810" as="sourcePoint" />
            <mxPoint x="400" y="920" as="targetPoint" />
          </mxGeometry>
        </mxCell>
      </root>
    </mxGraphModel>
  </diagram>
</mxfile>
